<svg width="80" height="80" fill="none" xmlns="http://www.w3.org/2000/svg"><path d="M11.865 45.832h5.376V49h-9.48V32.152h4.104v13.68zm15.302 3.336c-1.584 0-3.04-.368-4.368-1.104a8.393 8.393 0 01-3.144-3.072c-.768-1.328-1.152-2.816-1.152-4.464 0-1.648.384-3.128 1.152-4.44a8.393 8.393 0 013.144-3.072c1.328-.736 2.784-1.104 4.368-1.104 1.584 0 3.032.368 4.344 1.104a7.998 7.998 0 013.12 3.072c.768 1.312 1.152 2.792 1.152 4.44 0 1.648-.384 3.136-1.152 4.464a8.216 8.216 0 01-3.12 3.072c-1.312.736-2.76 1.104-4.344 1.104zm0-3.744c1.344 0 2.416-.448 3.216-1.344.816-.896 1.224-2.08 1.224-3.552 0-1.488-.408-2.672-1.224-3.552-.8-.896-1.872-1.344-3.216-1.344-1.36 0-2.448.44-3.264 1.32-.8.88-1.2 2.072-1.2 3.576 0 1.488.4 2.68 1.2 3.576.816.88 1.904 1.32 3.264 1.32zM49.25 37.48a2.985 2.985 0 00-1.32-1.272c-.56-.304-1.224-.456-1.992-.456-1.328 0-2.392.44-3.192 1.32-.8.864-1.2 2.024-1.2 3.48 0 1.552.416 2.768 1.248 3.648.848.864 2.008 1.296 3.48 1.296 1.008 0 1.856-.256 2.544-.768.704-.512 1.216-1.248 1.536-2.208h-5.208v-3.024h8.928v3.816c-.304 1.024-.824 1.976-1.56 2.856-.72.88-1.64 1.592-2.76 2.136-1.12.544-2.384.816-3.792.816-1.664 0-3.152-.36-4.464-1.08a7.969 7.969 0 01-3.048-3.048c-.72-1.296-1.08-2.776-1.08-4.44 0-1.664.36-3.144 1.08-4.44a7.756 7.756 0 013.048-3.048c1.296-.736 2.776-1.104 4.44-1.104 2.016 0 3.712.488 5.088 1.464 1.392.976 2.312 2.328 2.76 4.056H49.25zm15.065 11.688c-1.584 0-3.04-.368-4.368-1.104a8.393 8.393 0 01-3.144-3.072c-.768-1.328-1.152-2.816-1.152-4.464 0-1.648.384-3.128 1.152-4.44a8.393 8.393 0 013.144-3.072c1.328-.736 2.784-1.104 4.368-1.104 1.584 0 3.032.368 4.344 1.104a7.998 7.998 0 013.12 3.072c.768 1.312 1.152 2.792 1.152 4.44 0 1.648-.384 3.136-1.152 4.464a8.216 8.216 0 01-3.12 3.072c-1.312.736-2.76 1.104-4.344 1.104zm0-3.744c1.344 0 2.416-.448 3.216-1.344.816-.896 1.224-2.08 1.224-3.552 0-1.488-.408-2.672-1.224-3.552-.8-.896-1.872-1.344-3.216-1.344-1.36 0-2.448.44-3.264 1.32-.8.88-1.2 2.072-1.2 3.576 0 1.488.4 2.68 1.2 3.576.816.88 1.904 1.32 3.264 1.32z" fill="#6F36BC"/><circle cx="40" cy="40" r="38" stroke="#6F36BC" stroke-width="4"/></svg>