<svg width="12" height="16" viewBox="0 0 12 16" fill="none" xmlns="http://www.w3.org/2000/svg">
<path fill-rule="evenodd" clip-rule="evenodd" d="M6 15.5518L6.43849 15.1689C10.1258 11.9492 12 9.13792 12 6.66675C12 3.16719 9.26863 0.666748 6 0.666748C2.73137 0.666748 0 3.16719 0 6.66675C0 9.13792 1.87421 11.9492 5.56151 15.1689L6 15.5518ZM6 13.7757C2.87107 10.9558 1.33333 8.56624 1.33333 6.66676C1.33333 3.93116 3.44274 2.00009 6 2.00009C8.55726 2.00009 10.6667 3.93116 10.6667 6.66676C10.6667 8.56624 9.12893 10.9558 6 13.7757ZM6 3.3334C7.84095 3.3334 9.33333 4.82579 9.33333 6.66674C9.33333 8.50769 7.84095 10.0001 6 10.0001C4.15905 10.0001 2.66667 8.50769 2.66667 6.66674C2.66667 4.82579 4.15905 3.3334 6 3.3334ZM4 6.66675C4 5.56218 4.89543 4.66675 6 4.66675C7.10457 4.66675 8 5.56218 8 6.66675C8 7.77132 7.10457 8.66675 6 8.66675C4.89543 8.66675 4 7.77132 4 6.66675Z" fill="#BEA4E1"/>
</svg>
