<svg width="16" height="16" viewBox="0 0 16 16" fill="none" xmlns="http://www.w3.org/2000/svg">
<path fill-rule="evenodd" clip-rule="evenodd" d="M7.99999 15.3334C3.9499 15.3334 0.666656 12.0502 0.666656 8.00008C0.666656 3.94999 3.9499 0.666748 7.99999 0.666748C12.0501 0.666748 15.3333 3.94999 15.3333 8.00008C15.3333 12.0502 12.0501 15.3334 7.99999 15.3334ZM7.99999 14.0001C11.3137 14.0001 14 11.3138 14 8.00009C14 4.68638 11.3137 2.00009 7.99999 2.00009C4.68628 2.00009 1.99999 4.68638 1.99999 8.00009C1.99999 11.3138 4.68628 14.0001 7.99999 14.0001ZM11.3333 7.33342H8.66666V4.00009H7.33332V8.66676H11.3333V7.33342Z" fill="#BEA4E1"/>
</svg>
